<svg id="visual" viewBox="0 0 1920 1080" width="1920" height="1080" xmlns="http://www.w3.org/2000/svg" xmlns:xlink="http://www.w3.org/1999/xlink" version="1.1"><rect x="0" y="0" width="1920" height="1080" fill="#140021"></rect><path d="M0 708L107 708L107 549L213 549L213 567L320 567L320 631L427 631L427 688L533 688L533 704L640 704L640 693L747 693L747 515L853 515L853 544L960 544L960 672L1067 672L1067 696L1173 696L1173 537L1280 537L1280 654L1387 654L1387 592L1493 592L1493 681L1600 681L1600 734L1707 734L1707 665L1813 665L1813 671L1920 671L1920 730L1920 1081L1920 1081L1813 1081L1813 1081L1707 1081L1707 1081L1600 1081L1600 1081L1493 1081L1493 1081L1387 1081L1387 1081L1280 1081L1280 1081L1173 1081L1173 1081L1067 1081L1067 1081L960 1081L960 1081L853 1081L853 1081L747 1081L747 1081L640 1081L640 1081L533 1081L533 1081L427 1081L427 1081L320 1081L320 1081L213 1081L213 1081L107 1081L107 1081L0 1081Z" fill="#560090"></path><path d="M0 774L107 774L107 790L213 790L213 715L320 715L320 791L427 791L427 821L533 821L533 850L640 850L640 680L747 680L747 844L853 844L853 741L960 741L960 818L1067 818L1067 856L1173 856L1173 851L1280 851L1280 845L1387 845L1387 789L1493 789L1493 692L1600 692L1600 764L1707 764L1707 713L1813 713L1813 746L1920 746L1920 693L1920 1081L1920 1081L1813 1081L1813 1081L1707 1081L1707 1081L1600 1081L1600 1081L1493 1081L1493 1081L1387 1081L1387 1081L1280 1081L1280 1081L1173 1081L1173 1081L1067 1081L1067 1081L960 1081L960 1081L853 1081L853 1081L747 1081L747 1081L640 1081L640 1081L533 1081L533 1081L427 1081L427 1081L320 1081L320 1081L213 1081L213 1081L107 1081L107 1081L0 1081Z" fill="#7700c6"></path><path d="M0 955L107 955L107 835L213 835L213 916L320 916L320 948L427 948L427 842L533 842L533 960L640 960L640 864L747 864L747 905L853 905L853 863L960 863L960 824L1067 824L1067 828L1173 828L1173 905L1280 905L1280 928L1387 928L1387 919L1493 919L1493 941L1600 941L1600 954L1707 954L1707 840L1813 840L1813 880L1920 880L1920 956L1920 1081L1920 1081L1813 1081L1813 1081L1707 1081L1707 1081L1600 1081L1600 1081L1493 1081L1493 1081L1387 1081L1387 1081L1280 1081L1280 1081L1173 1081L1173 1081L1067 1081L1067 1081L960 1081L960 1081L853 1081L853 1081L747 1081L747 1081L640 1081L640 1081L533 1081L533 1081L427 1081L427 1081L320 1081L320 1081L213 1081L213 1081L107 1081L107 1081L0 1081Z" fill="#9900ff"></path></svg>